<svg width="18" height="18" viewBox="0 0 18 18" fill="none" xmlns="http://www.w3.org/2000/svg">
<path d="M13.2668 1.3769C13.4872 1.15654 13.7488 0.981741 14.0367 0.862482C14.3246 0.743223 14.6332 0.681841 14.9448 0.681841C15.2565 0.681841 15.565 0.743223 15.853 0.862482C16.1409 0.981741 16.4025 1.15654 16.6228 1.3769C16.8432 1.59726 17.018 1.85887 17.1373 2.14679C17.2565 2.4347 17.3179 2.74329 17.3179 3.05493C17.3179 3.36657 17.2565 3.67516 17.1373 3.96307C17.018 4.25099 16.8432 4.5126 16.6228 4.73296L5.29616 16.0596L0.681587 17.3182L1.94011 12.7036L13.2668 1.3769Z" stroke="white" stroke-width="1.31125" stroke-linecap="round" stroke-linejoin="round"/>
</svg>
